<svg width="80" height="60" viewBox="0 0 80 60" fill="none" xmlns="http://www.w3.org/2000/svg">
<g clip-path="url(#clip0_601_26265)">
<path d="M0 0H80V60H0V0Z" fill="#2F5785"/>
<path fill-rule="evenodd" clip-rule="evenodd" d="M37.4754 49.0625L32.0129 49.5375L32.7629 54.9625L29.0004 51L25.2379 54.9625L25.9879 49.5375L20.5254 49.0625L25.2379 46.275L22.2004 41.7125L27.3254 43.65L29.0004 38.4375L30.6879 43.65L35.8129 41.7125L32.7754 46.275M60.8254 54.0625L59.5004 52.0875L61.7254 52.925L62.4504 50.6625L63.1754 52.925L65.4004 52.0875L64.0879 54.0625L66.1379 55.275L63.7629 55.4875L64.0879 57.85L62.4629 56.1125L60.8129 57.85L61.1379 55.4875L58.7629 55.2875M60.8129 18.8L59.5004 16.825L61.7254 17.6625L62.4504 15.4L63.1754 17.6625L65.4004 16.825L64.0879 18.8L66.1379 20.025L63.7629 20.225L64.0879 22.5875L62.4629 20.8625L60.8129 22.575L61.1379 20.225L58.7629 20.025M47.6004 33.125L46.2879 31.15L48.5129 31.9875L49.2379 29.725L49.9754 31.9875L52.2004 31.15L50.8754 33.125L52.9254 34.3375L50.5504 34.55L50.8879 36.9125L49.2379 35.175L47.6129 36.9125L47.9254 34.55L45.5504 34.35M72.5879 29.6L71.2504 27.625L73.4754 28.4625L74.2004 26.2L74.9379 28.4625L77.1629 27.625L75.8504 29.6L77.8879 30.8125L75.5129 31.025L75.8379 33.375L74.2129 31.65L72.5629 33.375L72.8879 31.025L70.5129 30.8125M67.7504 40L66.4629 40.8125L66.8254 39.325L65.6629 38.35L67.1754 38.225L67.7504 36.825L68.3379 38.2375L69.8504 38.35L68.6879 39.325L69.0504 40.8125" fill="white"/>
<path d="M0 0H40V30H0V0Z" fill="#2F5785"/>
<path d="M4.6875 0L19.9375 11.3125L35.125 0H40V3.875L25 15.0625L40 26.1875V30H35L20 18.8125L5.0625 30H0V26.25L14.9375 15.125L0 4V0H4.6875Z" fill="white"/>
<path d="M26.5 17.5625L40 27.5V30L23.0625 17.5625H26.5ZM15 18.8125L15.375 21L3.375 30H0L15 18.8125ZM40 0V0.1875L24.4375 11.9375L24.5625 9.1875L36.875 0H40ZM0 0L14.9375 11H11.1875L0 2.625V0Z" fill="#EF4950"/>
<path d="M15.0625 0V30H25.0625V0H15.0625ZM0 10V20H40V10H0Z" fill="white"/>
<path d="M0 12.0625V18.0625H40V12.0625H0ZM17.0625 0V30H23.0625V0H17.0625Z" fill="#EF4950"/>
</g>
<defs>
<clipPath id="clip0_601_26265">
<rect width="80" height="60" fill="white"/>
</clipPath>
</defs>
</svg>
